<svg width="309" height="87" viewBox="0 0 309 87" fill="none" xmlns="http://www.w3.org/2000/svg">
<path d="M145.067 7.84962C151.776 7.79566 158.484 7.74169 165.396 7.68609C168.57 7.65036 168.57 7.65036 171.808 7.61391C173.483 7.60626 175.157 7.5996 176.831 7.5941C177.265 7.58726 177.699 7.58043 178.146 7.57338C179.429 7.5542 180.711 7.55307 181.993 7.55258C183.076 7.54386 183.076 7.54386 184.182 7.53497C186.48 7.92191 187.226 8.65398 188.653 10.4662C189.803 13.5063 189.449 16.9898 189.466 20.1964C189.479 20.8381 189.493 21.4798 189.506 22.1409C189.533 27.0238 189.533 27.0238 188.195 29.6456C187.917 30.2241 187.638 30.8025 187.352 31.3985C187.983 32.7162 188.637 34.0228 189.303 35.3233C189.588 37.7376 189.546 40.1314 189.506 42.5597C189.509 43.2009 189.511 43.8422 189.513 44.5029C189.49 47.6374 189.468 50.1486 188.002 52.985C185.87 55.0451 184.308 55.188 181.402 55.1701C180.584 55.1699 179.765 55.1697 178.922 55.1694C178.064 55.1594 177.207 55.1493 176.323 55.139C175.533 55.137 174.743 55.1351 173.928 55.133C170.976 55.1227 168.023 55.0954 165.071 55.07C158.47 55.0295 151.869 54.9891 145.067 54.9474C145.067 39.4051 145.067 23.8629 145.067 7.84962ZM160.029 12.4286C160.029 17.8252 160.029 23.2218 160.029 28.782C164.752 28.782 169.475 28.782 174.341 28.782C175.247 26.0504 175.137 23.4665 175.154 20.6053C175.168 20.0378 175.181 19.4703 175.195 18.8856C175.198 18.34 175.202 17.7945 175.205 17.2324C175.211 16.7345 175.217 16.2365 175.223 15.7235C174.922 13.9939 174.462 13.4351 173.04 12.4286C171.596 12.1592 171.596 12.1592 170.003 12.2369C169.48 12.2418 168.957 12.2467 168.417 12.2518C167.756 12.2696 167.094 12.2875 166.413 12.3059C164.306 12.3464 162.2 12.3869 160.029 12.4286ZM160.029 34.015C160.029 39.1958 160.029 44.3765 160.029 49.7143C164.752 49.7143 169.475 49.7143 174.341 49.7143C175.094 48.1998 175.076 47.3128 175.078 45.6285C175.079 45.0808 175.08 44.5331 175.081 43.9689C175.077 43.1094 175.077 43.1094 175.073 42.2326C175.075 41.6622 175.078 41.0917 175.081 40.504C175.079 39.6812 175.079 39.6812 175.078 38.8418C175.077 38.3398 175.077 37.8377 175.076 37.3204C175.041 35.8461 175.041 35.8461 174.341 34.015C169.618 34.015 164.895 34.015 160.029 34.015Z" fill="white"/>
<path d="M265.415 3.9248C270.138 3.9248 274.86 3.9248 279.726 3.9248C279.941 8.67383 280.156 13.4228 280.377 18.3158C281.021 18.0999 281.665 17.8841 282.328 17.6616C285.335 17.5066 288.345 17.5405 291.354 17.539C292.187 17.531 293.02 17.523 293.878 17.5147C295.082 17.5128 295.082 17.5128 296.31 17.5109C297.043 17.5082 297.777 17.5055 298.533 17.5027C300.647 17.6699 301.973 17.8764 303.796 18.9699C306.349 22.4304 305.999 26.1711 305.938 30.2895C305.935 30.9954 305.932 31.7013 305.93 32.4286C305.919 34.6747 305.894 36.9204 305.869 39.1663C305.86 40.6927 305.851 42.219 305.843 43.7453C305.823 47.4796 305.785 51.213 305.747 54.9474C301.025 54.9474 296.302 54.9474 291.436 54.9474C291.221 44.5859 291.006 34.2244 290.785 23.5489C287.136 23.5489 283.486 23.5489 279.726 23.5489C279.726 33.9104 279.726 44.2719 279.726 54.9474C275.003 54.9474 270.281 54.9474 265.415 54.9474C265.415 38.1099 265.415 21.2725 265.415 3.9248Z" fill="white"/>
<path d="M82.4005 17.5666C83.015 17.5624 83.6295 17.5583 84.2627 17.554C85.2568 17.5529 85.2568 17.5529 86.271 17.5518C87.2949 17.5485 87.2949 17.5485 88.3395 17.5452C89.7842 17.5419 91.2289 17.5403 92.6736 17.5404C94.8823 17.539 97.0907 17.5271 99.2993 17.5147C100.703 17.5128 102.106 17.5115 103.51 17.5109C104.17 17.5062 104.83 17.5015 105.51 17.4966C106.129 17.4987 106.747 17.5007 107.385 17.5027C108.197 17.5013 108.197 17.5013 109.026 17.4999C110.841 17.6877 112.205 18.1658 113.842 18.9699C115.725 21.3469 116.03 23.1425 115.984 26.1373C115.977 27.1211 115.977 27.1211 115.97 28.1248C115.952 28.9488 115.934 29.7727 115.916 30.6217C115.875 33.2526 115.835 35.8834 115.794 38.594C106.992 38.594 98.1904 38.594 89.1221 38.594C89.1221 42.2637 89.1221 45.9334 89.1221 49.7143C93.2009 49.7143 97.2797 49.7143 101.482 49.7143C101.482 47.3398 101.482 44.9653 101.482 42.5188C106.205 42.5188 110.928 42.5188 115.794 42.5188C115.794 49.7143 115.794 49.7143 114.493 52.985C112.584 54.8857 111.186 55.1972 108.541 55.222C107.875 55.2325 107.208 55.2429 106.522 55.2536C105.805 55.2537 105.089 55.2538 104.351 55.254C103.612 55.259 102.872 55.2639 102.11 55.2691C100.547 55.2761 98.9836 55.278 97.4203 55.2751C95.0285 55.2744 92.6381 55.3017 90.2466 55.3306C88.7274 55.334 87.2082 55.3358 85.6891 55.3358C84.6166 55.3518 84.6166 55.3518 83.5224 55.3683C80.5214 55.3409 78.6053 55.2671 75.9858 53.7223C74.2663 50.7294 74.3561 48.1259 74.4014 44.7239C74.3998 44.0524 74.3983 43.3808 74.3967 42.6889C74.3973 41.272 74.406 39.8551 74.4222 38.4383C74.4446 36.2687 74.4356 34.1009 74.423 31.9312C74.4275 30.5536 74.4338 29.1759 74.4421 27.7982C74.4388 27.1495 74.4356 26.5007 74.4323 25.8323C74.5085 21.3586 74.5085 21.3586 76.0126 19.2358C78.1677 17.8196 79.8886 17.5782 82.4005 17.5666ZM89.1221 23.5489C89.0745 25.2056 89.0621 26.8398 89.0815 28.4958C89.0949 30.1013 89.1083 31.7067 89.1221 33.3609C93.2009 33.3609 97.2797 33.3609 101.482 33.3609C101.496 31.7554 101.509 30.1499 101.523 28.4958C101.529 27.9895 101.535 27.4832 101.541 26.9615C101.545 25.8238 101.515 24.6861 101.482 23.5489C100.256 22.3155 98.5042 22.8081 96.8751 22.8053C96.356 22.8078 95.8369 22.8104 95.3021 22.813C94.783 22.8104 94.264 22.8079 93.7292 22.8053C91.2244 22.5618 91.2244 22.5618 89.1221 23.5489Z" fill="white"/>
<path d="M37.3986 17.5563C37.9719 17.55 38.5452 17.5437 39.1358 17.5372C39.7505 17.5344 40.3651 17.5317 40.9984 17.5288C41.9536 17.5232 41.9536 17.5232 42.9282 17.5175C44.2744 17.5113 45.6206 17.507 46.9669 17.5045C49.0213 17.4982 51.0753 17.4779 53.1297 17.4572C54.4392 17.453 55.7487 17.4495 57.0583 17.447C57.6703 17.4389 58.2823 17.4309 58.9129 17.4225C62.3077 17.4341 64.7392 17.6657 67.6547 19.6241C69.6411 23.165 69.0428 27.4602 68.9558 31.3985C64.233 31.3985 59.5101 31.3985 54.6442 31.3985C54.3222 27.5129 54.3222 27.5129 53.9937 23.5489C50.7736 23.5489 47.5535 23.5489 44.2358 23.5489C44.0211 32.1835 43.8064 40.818 43.5853 49.7143C47.2347 49.7143 50.8842 49.7143 54.6442 49.7143C54.6442 47.1239 54.6442 44.5335 54.6442 41.8647C59.367 41.8647 64.0899 41.8647 68.9558 41.8647C68.9558 50.3684 68.9558 50.3684 67.6547 52.985C65.7348 54.7614 64.4708 55.194 61.8827 55.2013C61.2553 55.2075 60.6278 55.2137 59.9813 55.22C59.3077 55.2161 58.6341 55.2121 57.94 55.208C56.8959 55.2108 56.8959 55.2108 55.8306 55.2137C54.3591 55.215 52.8876 55.2114 51.4162 55.2032C49.166 55.1927 46.9166 55.2031 44.6665 55.2157C43.2363 55.2144 41.8061 55.2119 40.3758 55.208C39.3674 55.214 39.3674 55.214 38.3386 55.22C32.4559 55.1622 32.4559 55.1622 29.9242 52.985C29.1548 51.4376 29.1792 50.4738 29.1585 48.7475C29.1502 48.1405 29.1418 47.5335 29.1332 46.9081C29.1284 46.2506 29.1236 45.5931 29.1187 44.9156C29.1134 44.2412 29.1082 43.5669 29.1028 42.8721C29.0938 41.4435 29.0868 40.0149 29.0817 38.5863C29.0705 36.3996 29.0419 34.2136 29.0132 32.0271C29.0066 30.6405 29.0011 29.2538 28.9967 27.8672C28.9853 27.2123 28.9739 26.5574 28.9622 25.8827C28.9762 21.3701 28.9762 21.3701 30.4294 19.2315C32.698 17.7952 34.7519 17.5798 37.3986 17.5563Z" fill="white"/>
<path d="M240.071 9.14368C240.64 9.17451 241.209 9.20534 241.795 9.2371C242.716 9.28453 242.716 9.28453 243.656 9.33292C244.303 9.3696 244.949 9.40628 245.614 9.44407C246.263 9.47822 246.912 9.51238 247.58 9.54756C249.188 9.63268 250.796 9.72197 252.404 9.81203C252.404 12.4024 252.404 14.9928 252.404 17.6616C254.98 17.6616 257.556 17.6616 260.211 17.6616C260.211 19.3886 260.211 21.1155 260.211 22.8947C257.634 22.8947 255.058 22.8947 252.404 22.8947C252.726 36.1704 252.726 36.1704 253.055 49.7143C255.416 49.7143 257.778 49.7143 260.211 49.7143C260.211 51.4412 260.211 53.1681 260.211 54.9474C257.243 55.0234 254.275 55.0699 251.306 55.1109C250.465 55.1328 249.623 55.1547 248.756 55.1773C247.945 55.1858 247.134 55.1942 246.298 55.2029C245.179 55.2234 245.179 55.2234 244.037 55.2444C241.536 54.8804 240.487 54.1465 238.743 52.3308C238.14 50.5159 238.013 48.8601 238.019 46.9553C238.019 46.4185 238.019 45.8818 238.019 45.3288C238.022 44.7556 238.026 44.1825 238.029 43.592C238.03 43.0004 238.031 42.4088 238.032 41.7993C238.036 39.9132 238.044 38.0271 238.052 36.141C238.055 34.8608 238.058 33.5806 238.061 32.3005C238.068 29.1652 238.079 26.03 238.093 22.8947C236.161 22.8947 234.229 22.8947 232.238 22.8947C232.238 21.1678 232.238 19.4409 232.238 17.6616C234.17 17.6616 236.102 17.6616 238.093 17.6616C238.085 17.1026 238.078 16.5435 238.07 15.9675C238.064 15.2449 238.058 14.5223 238.052 13.7777C238.044 13.0568 238.037 12.3358 238.029 11.593C238.116 9.16461 238.116 9.16461 240.071 9.14368Z" fill="white"/>
<path d="M7.15579 7.84961C12.308 7.84961 17.4601 7.84961 22.7684 7.84961C22.7684 23.3919 22.7684 38.9341 22.7684 54.9474C17.6163 54.9474 12.4641 54.9474 7.15579 54.9474C7.15579 39.4051 7.15579 23.8628 7.15579 7.84961Z" fill="white"/>
<path d="M210.771 7.1955C212.994 8.68605 213.243 9.3709 214.204 11.8051C214.481 12.4978 214.757 13.1904 215.043 13.9041C215.337 14.6584 215.631 15.4127 215.934 16.1899C216.404 17.3765 216.873 18.5631 217.343 19.7496C217.673 20.5824 218.001 21.4156 218.329 22.2492C219.381 24.924 220.454 27.5887 221.546 30.2472C222.281 32.0346 223.009 33.8245 223.737 35.6145C224.091 36.4812 224.447 37.347 224.805 38.2117C225.308 39.4257 225.8 40.6438 226.292 41.8621C226.577 42.5581 226.861 43.2542 227.155 43.9713C227.699 45.8396 227.79 46.6398 227.034 48.406C222.303 52.8916 213.952 51.9139 207.879 51.8019C203.147 51.6459 198.401 51.3764 194.507 48.406C194.765 43.294 196.701 39.0349 198.695 34.383C199.407 32.6985 200.114 31.0123 200.822 29.3262C201.001 28.9014 201.18 28.4766 201.365 28.0389C203.49 22.9862 205.474 17.8775 207.438 12.7596C207.687 12.1208 207.937 11.4821 208.194 10.8239C208.41 10.2629 208.626 9.702 208.848 9.12405C209.469 7.84963 209.469 7.84963 210.771 7.1955ZM210.771 12.4286C208.373 18.1883 206.004 23.96 203.659 29.7418C203.272 30.6948 202.884 31.6475 202.496 32.5998C201.927 33.9922 201.362 35.3859 200.797 36.7798C200.622 37.2063 200.447 37.6328 200.267 38.0722C199.357 40.226 199.357 40.226 199.061 42.5188C207.004 42.5188 214.947 42.5188 223.131 42.5188C221.807 38.5267 220.436 34.6454 218.854 30.7623C218.64 30.2334 218.426 29.7045 218.206 29.1596C217.532 27.4931 216.855 25.8276 216.178 24.1621C215.717 23.023 215.255 21.8838 214.794 20.7445C213.672 17.9718 212.547 15.1999 211.421 12.4286C211.206 12.4286 210.992 12.4286 210.771 12.4286ZM197.109 46.4436C200.488 49.8414 206.643 49.1947 211.136 49.2237C211.908 49.2327 211.908 49.2327 212.695 49.2419C219.067 49.2815 219.067 49.2815 224.432 46.4436C219.839 44.5238 215.711 44.1799 210.771 44.2359C209.767 44.2245 209.767 44.2245 208.743 44.2129C204.517 44.2291 201.017 44.8102 197.109 46.4436Z" fill="white"/>
<path d="M16.2632 71.9549C43.312 71.9549 70.3609 71.9549 98.2295 71.9549C98.2295 72.8184 98.2295 73.6818 98.2295 74.5714C71.1806 74.5714 44.1317 74.5714 16.2632 74.5714C16.2632 73.708 16.2632 72.8445 16.2632 71.9549Z" fill="white"/>
<path d="M214.674 71.9549C241.723 71.9549 268.771 71.9549 296.64 71.9549C296.64 72.8184 296.64 73.6818 296.64 74.5714C269.591 74.5714 242.542 74.5714 214.674 74.5714C214.674 73.708 214.674 72.8445 214.674 71.9549Z" fill="white"/>
<path d="M175.479 65.1682C178.521 65.177 178.521 65.177 180.048 66.1443C180.928 67.0489 180.928 67.0489 182.147 68.6842C181.718 69.9794 181.289 71.2746 180.846 72.609C181.168 72.8654 181.49 73.1217 181.822 73.3858C182.798 74.5714 182.798 74.5714 183.083 76.1659C182.7 78.4189 181.983 79.0665 180.196 80.4587C178.092 80.7142 178.092 80.7142 175.805 80.6222C175.043 80.5986 174.282 80.575 173.497 80.5506C172.917 80.5203 172.337 80.4899 171.739 80.4587C171.72 78.0738 171.709 75.689 171.698 73.3041C171.693 72.6232 171.687 71.9422 171.682 71.2407C171.679 70.27 171.679 70.27 171.675 69.2796C171.672 68.6801 171.669 68.0806 171.665 67.463C171.802 64.8775 173.211 65.256 175.479 65.1682ZM174.341 68.0301C174.341 69.1094 174.341 70.1887 174.341 71.3008C175.844 71.3008 177.346 71.3008 178.895 71.3008C178.895 70.2214 178.895 69.1421 178.895 68.0301C176.564 67.3745 176.564 67.3745 174.341 68.0301ZM174.341 73.9173C174.313 75.2253 174.315 76.5341 174.341 77.8421C174.556 78.058 174.77 78.2738 174.992 78.4963C176.513 78.3083 178.032 78.0911 179.545 77.8421C179.989 76.6046 179.989 76.6046 180.196 75.2256C178.923 73.6483 178.923 73.6483 176.537 73.8355C175.45 73.876 175.45 73.876 174.341 73.9173Z" fill="white"/>
<path d="M141.815 65.4135C142.673 65.4135 143.532 65.4135 144.417 65.4135C146.134 68.4356 147.852 71.4578 149.621 74.5714C149.836 71.5493 150.05 68.5272 150.272 65.4135C150.916 65.4135 151.56 65.4135 152.223 65.4135C153.004 66.9839 152.948 67.9605 152.937 69.7114C152.935 70.2975 152.933 70.8835 152.931 71.4873C152.925 72.1003 152.92 72.7133 152.914 73.3449C152.911 73.963 152.908 74.5811 152.905 75.2179C152.898 76.7468 152.887 78.2757 152.874 79.8045C151.8 80.0204 150.727 80.2363 149.621 80.4587C147.367 76.5731 147.367 76.5731 145.067 72.609C144.973 73.6614 144.88 74.7137 144.783 75.7979C144.498 78.9869 144.498 78.9869 143.766 80.4587C143.122 80.4587 142.478 80.4587 141.815 80.4587C141.815 75.4938 141.815 70.5289 141.815 65.4135Z" fill="white"/>
<path d="M127.503 65.4135C128.791 65.7373 128.791 65.7373 130.105 66.0677C130.32 69.9532 130.535 73.8388 130.756 77.8421C132.259 77.8421 133.761 77.8421 135.309 77.8421C135.524 73.7407 135.739 69.6393 135.96 65.4135C136.819 65.6294 137.677 65.8453 138.562 66.0677C138.615 67.7443 138.654 69.4193 138.684 71.0963C138.7 71.5681 138.717 72.0399 138.734 72.526C138.775 75.5363 138.455 77.411 136.611 79.8045C134.916 81.0972 134.161 81.1253 132.016 80.9493C130.105 80.4587 130.105 80.4587 128.154 79.1504C126.745 75.0508 126.542 71.0394 126.853 66.7218C127.067 66.2901 127.282 65.8584 127.503 65.4135Z" fill="white"/>
<path d="M188.002 65.4135C188.861 65.4135 189.719 65.4135 190.604 65.4135C191.368 67.5514 192.125 69.6915 192.881 71.8322C193.207 72.7436 193.207 72.7436 193.539 73.6733C193.745 74.2572 193.95 74.8411 194.162 75.4428C194.353 75.9806 194.543 76.5184 194.74 77.0725C195.158 78.4963 195.158 78.4963 195.158 80.4587C194.299 80.4587 193.441 80.4587 192.556 80.4587C191.912 79.1635 191.268 77.8683 190.604 76.5338C189.531 76.5338 188.457 76.5338 187.352 76.5338C186.708 77.829 186.064 79.1242 185.4 80.4587C184.541 80.4587 183.683 80.4587 182.798 80.4587C186.143 67.2825 186.143 67.2825 188.002 65.4135ZM188.653 69.3384C188.438 70.8494 188.223 72.3605 188.002 73.9173C188.861 73.7014 189.719 73.4856 190.604 73.2632C190.175 71.968 189.746 70.6728 189.303 69.3384C189.088 69.3384 188.874 69.3384 188.653 69.3384Z" fill="white"/>
<path d="M111.24 65.4135C111.884 65.8453 112.528 66.277 113.192 66.7218C113.192 67.3694 113.192 68.017 113.192 68.6842C112.467 68.5628 111.743 68.4414 110.996 68.3163C108.751 67.8228 108.751 67.8228 107.337 68.6842C107.795 70.8225 107.795 70.8225 109.858 71.6278C110.528 71.9516 111.199 72.2754 111.891 72.609C113.151 73.4267 113.151 73.4267 113.842 74.5714C113.842 76.8609 113.842 76.8609 113.192 79.1504C111.809 80.4586 111.809 80.4586 109.939 81.1128C107.187 80.9696 105.738 80.6949 103.434 79.1504C103.756 78.179 103.756 78.179 104.084 77.188C106.016 77.4038 107.948 77.6197 109.939 77.8421C109.939 76.9786 109.939 76.1152 109.939 75.2256C108.825 74.2177 108.825 74.2177 107.378 73.4676C106.902 73.1952 106.427 72.9228 105.937 72.6422C105.54 72.4154 105.143 72.1886 104.735 71.9549C104.084 71.3007 104.084 71.3007 103.922 69.4201C104.084 67.3759 104.084 67.3759 104.735 66.1494C106.783 64.9908 108.944 65.0551 111.24 65.4135Z" fill="white"/>
<path d="M158.728 65.4135C159.587 65.4135 160.446 65.4135 161.331 65.4135C161.55 66.0367 161.77 66.6598 161.996 67.3018C162.289 68.1306 162.582 68.9593 162.876 69.7881C163.162 70.6001 163.449 71.4121 163.745 72.2487C164.242 73.6264 164.765 74.9958 165.34 76.3422C165.884 77.8421 165.884 77.8421 165.884 80.4587C165.026 80.4587 164.167 80.4587 163.282 80.4587C162.853 79.1635 162.423 77.8683 161.981 76.5338C160.693 76.5338 159.405 76.5338 158.078 76.5338C157.434 77.829 156.79 79.1242 156.126 80.4587C155.482 80.4587 154.838 80.4587 154.175 80.4587C154.564 77.0369 155.334 73.9784 156.452 70.7284C156.598 70.2865 156.745 69.8447 156.896 69.3895C157.986 66.1599 157.986 66.1599 158.728 65.4135ZM159.379 69.3384C159.164 70.8494 158.95 72.3605 158.728 73.9173C159.587 73.9173 160.446 73.9173 161.331 73.9173C161.108 71.9741 161.108 71.9741 160.68 69.9925C160.251 69.7766 159.821 69.5608 159.379 69.3384Z" fill="white"/>
<path d="M119.046 65.4135C119.905 65.4135 120.764 65.4135 121.648 65.4135C122.414 67.4279 123.171 69.4457 123.925 71.4643C124.142 72.0352 124.36 72.606 124.583 73.1942C124.892 74.0226 124.892 74.0226 125.206 74.8678C125.492 75.6283 125.492 75.6283 125.784 76.4042C126.202 77.8421 126.202 77.8421 126.202 80.4587C125.343 80.4587 124.485 80.4587 123.6 80.4587C123.171 79.1635 122.741 77.8683 122.299 76.5338C121.011 76.5338 119.723 76.5338 118.396 76.5338C117.752 77.829 117.108 79.1242 116.444 80.4587C115.8 80.4587 115.156 80.4587 114.493 80.4587C114.882 77.0369 115.652 73.9784 116.769 70.7284C116.916 70.2865 117.063 69.8447 117.214 69.3895C118.304 66.1599 118.304 66.1599 119.046 65.4135ZM119.697 69.3384C119.482 70.8494 119.267 72.3605 119.046 73.9173C119.905 73.9173 120.764 73.9173 121.648 73.9173C121.426 71.9741 121.426 71.9741 120.998 69.9925C120.569 69.7766 120.139 69.5608 119.697 69.3384Z" fill="white"/>
<path d="M196.459 65.4135C197.318 65.4135 198.176 65.4135 199.061 65.4135C199.061 69.7308 199.061 74.0481 199.061 78.4963C201.208 78.4963 203.355 78.4963 205.566 78.4963C205.566 79.1438 205.566 79.7914 205.566 80.4587C202.561 80.4587 199.555 80.4587 196.459 80.4587C196.459 75.4938 196.459 70.5289 196.459 65.4135Z" fill="white"/>
<path d="M207.518 65.4135C208.162 65.4135 208.806 65.4135 209.469 65.4135C209.469 70.3784 209.469 75.3433 209.469 80.4587C208.611 80.2428 207.752 80.0269 206.867 79.8045C206.849 77.5287 206.837 75.2529 206.827 72.977C206.821 72.3273 206.816 71.6776 206.81 71.0082C206.808 70.3905 206.806 69.7729 206.804 69.1365C206.8 68.5644 206.797 67.9923 206.794 67.4029C206.867 66.0677 206.867 66.0677 207.518 65.4135Z" fill="white"/>
<path d="M7.15579 7.84961C8.22916 7.84961 9.30253 7.84961 10.4084 7.84961C9.93411 8.36912 9.93411 8.36912 9.45021 8.89912C8.17295 10.914 8.19888 12.2251 8.17557 14.6062C8.1627 15.4442 8.14982 16.2822 8.13655 17.1455C8.13215 18.0569 8.12796 18.9682 8.12396 19.8796C8.113 20.8145 8.10119 21.7493 8.08857 22.6842C8.05769 25.1403 8.03829 27.5964 8.02128 30.0527C8.00188 32.5609 7.97162 35.0689 7.94227 37.577C7.88632 42.4949 7.8425 47.4127 7.80632 52.3308C7.59164 52.3308 7.37697 52.3308 7.15579 52.3308C7.15579 37.652 7.15579 22.9732 7.15579 7.84961Z" fill="white"/>
</svg>
